<svg xmlns="http://www.w3.org/2000/svg" viewBox="0 0 454.478 454.478" width="512" height="512"><path fill="#e6e6e6" d="M7.5 409.9h439.478v25.499H7.5z"/><path fill="#bca2a2" d="M53.502 196.498h51.99v210.4h-51.99z"/><path fill="#e6e6e6" d="M183.482 119.568v48.99h-25.99v238.34h-52V60.408h77.99z"/><path fill="#ccc" d="M235.482 333.888v.01h-26v73H157.492v-238.34h77.99z"/><path fill="#bca2a2" d="M367.982 333.898v73h-158.5v-73h92.5z"/><path fill="#e6e6e6" d="M400.972 130.228v276.67h-32.99v-73h-66v-203.67h82.5z"/><path fill="#ccc" d="M384.482 77.728v52.5h-66v-52.5h47.25z"/><path fill="#e6e6e6" d="M337.232 52.228h28.5v25.5h-28.5z"/><path d="M184.302 19.078c27.75 0 50.25 22.5 50.25 50.25s-22.5 50.25-50.25 50.25c-.27 0-.55 0-.82-.01v-59.16h-48.65c4.22-23.49 24.76-41.33 49.47-41.33z" fill="#ffd039"/><g fill="#333"><path d="M7.5 414.4h439.478c4.143 0 7.5-3.358 7.5-7.5s-3.357-7.5-7.5-7.5h-38.504V130.227a7.5 7.5 0 00-7.5-7.5h-8.996v-45a7.5 7.5 0 00-7.5-7.5h-11.249V52.229a7.5 7.5 0 00-7.5-7.5h-6.749v-10.5c0-4.142-3.357-7.5-7.5-7.5s-7.5 3.358-7.5 7.5v10.499h-6.749a7.5 7.5 0 00-7.5 7.5v17.999h-11.249a7.5 7.5 0 00-7.5 7.5v45h-8.997a7.5 7.5 0 00-7.5 7.5v196.169h-51.5V168.563a7.5 7.5 0 00-7.5-7.5h-44.5v-34.382c28.707-3.323 51.07-27.768 51.07-57.351 0-31.844-25.906-57.75-57.75-57.75-25.856 0-48.213 17.046-55.379 41.333h-23.431a7.5 7.5 0 00-7.5 7.5v128.585h-44.49a7.5 7.5 0 00-7.5 7.5V399.4H7.5a7.5 7.5 0 000 15zM344.73 59.729h13.498v10.499H344.73V59.729zm-18.749 25.498h50.996v37.497h-50.996V85.227zm34.498 256.169V399.4H216.987v-58.004h143.492zm-50.995-203.669h83.989V399.4h-17.995v-65.504a7.5 7.5 0 00-7.5-7.5h-58.494V137.727zm-81.5 188.669h-18.498a7.5 7.5 0 00-7.5 7.5V399.4h-36.993V176.063h62.99v150.333zm-43.68-299.817c23.572 0 42.75 19.177 42.75 42.75 0 21.3-15.66 39.008-36.07 42.225V60.413a7.5 7.5 0 00-7.5-7.5h-38.678a42.719 42.719 0 0139.498-26.334zm-71.31 41.334h62.99v93.15h-10.995V80.791a7.5 7.5 0 00-15 0v305.735c0 .033.004.064.005.097V399.4h-37V67.913zm-51.99 309.816h19.39a7.5 7.5 0 000-15h-19.39v-13.2h19.39a7.5 7.5 0 000-15h-19.39v-13.2h19.39a7.5 7.5 0 000-15h-19.39v-13.2h19.39a7.5 7.5 0 000-15h-19.39v-13.2h19.39a7.5 7.5 0 000-15h-19.39v-13.2h19.39a7.5 7.5 0 000-15h-19.39v-17.732h36.99V399.4h-36.99v-21.671zM446.978 427.898H7.5a7.5 7.5 0 000 15h439.478a7.5 7.5 0 000-15z"/><path d="M131.491 394.026a7.5 7.5 0 007.5-7.5V80.791a7.5 7.5 0 00-15 0v305.735a7.5 7.5 0 007.5 7.5zM183.488 394.335a7.5 7.5 0 007.5-7.5V188.628a7.5 7.5 0 00-15 0v198.207a7.5 7.5 0 007.5 7.5zM209.487 314.729a7.5 7.5 0 007.5-7.5V188.628a7.5 7.5 0 00-15 0V307.23a7.5 7.5 0 007.5 7.499zM334.984 147.729a7.5 7.5 0 00-7.5 7.5v152c0 4.142 3.357 7.5 7.5 7.5s7.5-3.358 7.5-7.5v-152a7.5 7.5 0 00-7.5-7.5zM375.479 307.229V155.227c0-4.142-3.357-7.5-7.5-7.5s-7.5 3.358-7.5 7.5v152.002c0 4.142 3.357 7.5 7.5 7.5s7.5-3.357 7.5-7.5zM340.48 91.804a7.5 7.5 0 00-7.5 7.5v9.344c0 4.142 3.357 7.5 7.5 7.5s7.5-3.358 7.5-7.5v-9.344a7.5 7.5 0 00-7.5-7.5zM362.479 91.804a7.5 7.5 0 00-7.5 7.5v9.344c0 4.142 3.357 7.5 7.5 7.5s7.5-3.358 7.5-7.5v-9.344a7.5 7.5 0 00-7.5-7.5zM233.732 366.063h110c4.143 0 7.5-3.358 7.5-7.5s-3.357-7.5-7.5-7.5h-110a7.5 7.5 0 000 15zM233.732 388.729h110c4.143 0 7.5-3.358 7.5-7.5s-3.357-7.5-7.5-7.5h-110a7.5 7.5 0 000 15z"/></g></svg>